<svg xmlns="http://www.w3.org/2000/svg" xmlns:xlink="http://www.w3.org/1999/xlink" width="184" zoomAndPan="magnify" viewBox="0 0 138 39.749999" height="53" preserveAspectRatio="xMidYMid meet" version="1.0"><defs><clipPath id="6290c9da88"><path d="M 0.429688 0 L 137.566406 0 L 137.566406 39.5 L 0.429688 39.5 Z M 0.429688 0 " clip-rule="nonzero"/></clipPath><clipPath id="b8fc106cc5"><path d="M 17.664062 9.875 L 23.679688 9.875 L 23.679688 12.542969 L 17.664062 12.542969 Z M 17.664062 9.875 " clip-rule="nonzero"/></clipPath><clipPath id="e0c5518a68"><path d="M 13.492188 12.722656 L 27.253906 12.722656 L 27.253906 21.410156 L 13.492188 21.410156 Z M 13.492188 12.722656 " clip-rule="nonzero"/></clipPath><clipPath id="6b6057b5d6"><path d="M 3.242188 16.34375 L 18.605469 16.34375 L 18.605469 25 L 3.242188 25 Z M 3.242188 16.34375 " clip-rule="nonzero"/></clipPath><clipPath id="6294b0726f"><path d="M 16.914062 21 L 20.0625 21 L 20.0625 29.550781 L 16.914062 29.550781 Z M 16.914062 21 " clip-rule="nonzero"/></clipPath></defs><g clip-path="url(#6290c9da88)"><path fill="#ffffff" d="M 0.429688 0 L 137.570312 0 L 137.570312 39.5 L 0.429688 39.5 Z M 0.429688 0 " fill-opacity="1" fill-rule="nonzero"/><path fill="#ffffff" d="M 0.429688 0 L 137.570312 0 L 137.570312 39.5 L 0.429688 39.5 Z M 0.429688 0 " fill-opacity="1" fill-rule="nonzero"/></g><g clip-path="url(#b8fc106cc5)"><path fill="#4ca9f2" d="M 17.863281 10.371094 L 17.863281 12.21875 L 23.042969 12.21875 L 23.042969 10.371094 C 23.042969 10.097656 22.820312 9.875 22.546875 9.875 L 18.359375 9.875 C 18.085938 9.875 17.863281 10.097656 17.863281 10.371094 Z M 17.863281 10.371094 " fill-opacity="1" fill-rule="evenodd"/></g><path fill="#615dff" d="M 18.765625 15.675781 Z M 18.796875 15.667969 Z M 18.804688 15.664062 Z M 18.8125 15.65625 Z M 18.816406 15.65625 Z M 18.824219 15.65625 Z M 18.832031 15.652344 Z M 18.835938 15.648438 Z M 18.84375 15.648438 Z M 18.851562 15.644531 Z M 18.859375 15.644531 Z M 18.871094 15.644531 Z M 18.875 15.644531 Z M 18.882812 15.644531 Z M 18.890625 15.644531 Z M 18.898438 15.644531 Z M 22 15.644531 Z M 22.011719 15.644531 Z M 22.015625 15.644531 Z M 22.027344 15.644531 Z M 22.03125 15.644531 Z M 22.039062 15.644531 Z M 22.046875 15.644531 Z M 22.054688 15.644531 Z M 22.058594 15.648438 Z M 22.066406 15.648438 Z M 22.074219 15.652344 Z M 22.082031 15.65625 Z M 22.085938 15.65625 Z M 22.09375 15.65625 Z M 22.140625 15.675781 Z M 16.480469 12.796875 L 16.480469 15.710938 C 16.480469 16.3125 16.96875 16.804688 17.574219 16.804688 L 18.617188 16.804688 L 18.617188 15.890625 L 18.621094 15.882812 L 18.621094 15.875 L 18.625 15.867188 L 18.625 15.863281 L 18.628906 15.851562 L 18.628906 15.84375 L 18.640625 15.820312 L 18.644531 15.808594 L 18.65625 15.785156 L 18.664062 15.78125 L 18.667969 15.773438 L 18.671875 15.769531 L 18.675781 15.761719 L 18.679688 15.757812 L 18.683594 15.75 C 18.695312 15.738281 18.707031 15.726562 18.714844 15.714844 L 18.726562 15.707031 C 18.738281 15.699219 18.75 15.691406 18.761719 15.683594 L 18.769531 15.679688 C 18.777344 15.675781 18.789062 15.671875 18.800781 15.667969 L 18.804688 15.667969 L 18.8125 15.664062 L 18.820312 15.65625 L 18.832031 15.65625 L 18.835938 15.652344 L 18.84375 15.652344 L 18.851562 15.648438 L 18.859375 15.648438 L 18.867188 15.644531 L 22.039062 15.644531 L 22.046875 15.648438 L 22.050781 15.648438 L 22.058594 15.652344 L 22.0625 15.652344 L 22.070312 15.65625 L 22.078125 15.65625 L 22.09375 15.667969 C 22.113281 15.667969 22.121094 15.675781 22.132812 15.679688 C 22.164062 15.695312 22.1875 15.714844 22.207031 15.738281 L 22.21875 15.746094 L 22.21875 15.75 L 22.238281 15.773438 L 22.242188 15.78125 L 22.253906 15.800781 L 22.257812 15.8125 L 22.265625 15.832031 L 22.269531 15.839844 L 22.273438 15.851562 L 22.273438 15.855469 L 22.277344 15.863281 L 22.277344 15.871094 L 22.28125 15.875 L 22.28125 15.898438 L 22.285156 15.90625 L 22.285156 16.808594 L 23.328125 16.808594 C 23.929688 16.808594 24.417969 16.316406 24.417969 15.714844 L 24.417969 12.796875 Z M 16.480469 12.796875 " fill-opacity="1" fill-rule="evenodd"/><path fill="#4ca9f2" d="M 19.195312 16.222656 L 21.710938 16.222656 L 21.710938 17.972656 L 19.195312 17.972656 Z M 19.195312 16.222656 " fill-opacity="1" fill-rule="evenodd"/><g clip-path="url(#e0c5518a68)"><path fill="#615dff" d="M 19.332031 20.445312 Z M 22 18.550781 L 18.902344 18.550781 C 18.742188 18.550781 18.617188 18.421875 18.617188 18.257812 L 18.617188 17.386719 L 17.570312 17.386719 C 16.652344 17.386719 15.90625 16.636719 15.90625 15.710938 L 15.90625 12.796875 L 14.707031 12.796875 C 14.261719 12.796875 13.898438 13.160156 13.898438 13.609375 L 13.898438 17.402344 L 19.269531 20.394531 C 19.269531 20.398438 19.277344 20.402344 19.28125 20.402344 L 19.285156 20.40625 L 19.289062 20.40625 L 19.292969 20.410156 L 19.292969 20.414062 L 19.296875 20.414062 C 19.308594 20.421875 19.316406 20.433594 19.324219 20.441406 L 19.332031 20.449219 L 19.339844 20.453125 C 19.359375 20.472656 19.375 20.492188 19.386719 20.515625 L 19.386719 20.523438 L 19.390625 20.527344 L 19.390625 20.53125 L 19.398438 20.539062 L 19.398438 20.546875 L 19.40625 20.5625 L 19.40625 20.574219 L 19.410156 20.582031 L 19.410156 20.585938 L 19.414062 20.589844 L 19.414062 20.59375 L 19.417969 20.597656 L 19.417969 20.625 L 19.421875 20.628906 L 19.421875 21.394531 L 26.203125 21.394531 C 26.652344 21.394531 27.011719 21.03125 27.011719 20.585938 L 27.011719 13.601562 C 27.011719 13.15625 26.652344 12.789062 26.203125 12.789062 L 25.007812 12.789062 L 25.007812 15.707031 C 25.007812 16.632812 24.257812 17.382812 23.335938 17.382812 L 22.296875 17.382812 L 22.296875 18.257812 C 22.292969 18.417969 22.164062 18.550781 22 18.550781 Z M 22 18.550781 " fill-opacity="1" fill-rule="evenodd"/></g><g clip-path="url(#6b6057b5d6)"><path fill="#615dff" d="M 10.890625 16.386719 L 3.242188 20.648438 L 10.890625 24.910156 L 18.53125 20.648438 L 13.472656 17.828125 L 13.464844 17.824219 Z M 10.890625 16.386719 " fill-opacity="1" fill-rule="evenodd"/></g><path fill="#615dff" d="M 15.175781 25.402344 L 11.019531 27.460938 C 10.976562 27.484375 10.933594 27.492188 10.890625 27.492188 C 10.84375 27.492188 10.800781 27.484375 10.757812 27.460938 L 6.601562 25.402344 C 6.5 25.355469 6.4375 25.253906 6.4375 25.144531 L 6.4375 23.09375 L 5.472656 22.550781 L 5.472656 26.261719 L 10.890625 28.945312 L 16.308594 26.261719 L 16.308594 22.550781 L 15.339844 23.089844 L 15.339844 25.144531 C 15.335938 25.25 15.273438 25.355469 15.175781 25.402344 Z M 15.175781 25.402344 " fill-opacity="1" fill-rule="evenodd"/><path fill="#4ca9f2" d="M 14.761719 23.414062 L 11.027344 25.496094 C 10.988281 25.515625 10.9375 25.527344 10.890625 25.527344 C 10.839844 25.527344 10.792969 25.515625 10.746094 25.496094 L 7.015625 23.414062 L 7.015625 24.960938 L 10.890625 26.878906 L 14.757812 24.960938 Z M 14.761719 23.414062 " fill-opacity="1" fill-rule="evenodd"/><g clip-path="url(#6294b0726f)"><path fill="#4ca9f2" d="M 18.117188 21.6875 L 18.117188 27.691406 C 18.117188 27.851562 17.988281 27.980469 17.828125 27.980469 L 17.8125 27.980469 C 17.65625 27.980469 17.546875 28.085938 17.359375 28.40625 L 16.953125 29.109375 C 16.933594 29.144531 16.964844 29.253906 17.070312 29.386719 C 17.15625 29.492188 17.265625 29.546875 17.40625 29.546875 L 19.554688 29.546875 C 19.691406 29.546875 19.796875 29.492188 19.882812 29.386719 C 19.992188 29.253906 20.023438 29.144531 20.003906 29.109375 L 19.59375 28.40625 C 19.410156 28.085938 19.296875 27.980469 19.144531 27.980469 L 19.128906 27.980469 C 18.972656 27.980469 18.839844 27.851562 18.839844 27.691406 L 18.839844 21.140625 L 18.117188 21.542969 Z M 18.117188 21.6875 " fill-opacity="1" fill-rule="evenodd"/></g><path fill="#615dff" d="M 38.8125 12.464844 L 38.652344 15.03125 L 38.589844 15.042969 C 38.160156 14.398438 37.429688 13.980469 36.394531 13.792969 C 36.070312 13.730469 35.761719 13.699219 35.464844 13.699219 C 35.167969 13.699219 34.914062 13.730469 34.703125 13.78125 C 34.492188 13.828125 34.3125 13.902344 34.164062 14.007812 C 33.839844 14.210938 33.679688 14.480469 33.679688 14.816406 C 33.679688 15.257812 33.816406 15.585938 34.089844 15.804688 C 34.445312 16.074219 35.019531 16.261719 35.820312 16.371094 C 36.625 16.480469 37.269531 16.628906 37.757812 16.816406 C 38.242188 17 38.644531 17.230469 38.957031 17.511719 C 39.550781 18.046875 39.847656 18.800781 39.847656 19.769531 C 39.847656 21.050781 39.367188 22.035156 38.402344 22.722656 C 37.582031 23.3125 36.542969 23.605469 35.292969 23.605469 C 34.285156 23.605469 33.292969 23.417969 32.304688 23.042969 C 31.984375 22.910156 31.703125 22.757812 31.460938 22.59375 L 31.554688 19.6875 L 31.589844 19.664062 C 32.300781 20.90625 33.480469 21.523438 35.125 21.523438 C 36.285156 21.523438 37.050781 21.242188 37.429688 20.679688 C 37.550781 20.488281 37.617188 20.277344 37.617188 20.042969 C 37.617188 19.808594 37.578125 19.613281 37.5 19.464844 C 37.429688 19.308594 37.304688 19.175781 37.132812 19.066406 C 36.796875 18.847656 36.234375 18.699219 35.441406 18.628906 C 34.652344 18.554688 34 18.40625 33.492188 18.195312 C 32.992188 17.984375 32.589844 17.722656 32.296875 17.417969 C 31.746094 16.863281 31.472656 16.085938 31.472656 15.085938 C 31.472656 14.050781 31.835938 13.21875 32.566406 12.582031 C 33.292969 11.929688 34.28125 11.605469 35.527344 11.605469 C 36.777344 11.605469 37.875 11.894531 38.8125 12.464844 Z M 38.8125 12.464844 " fill-opacity="1" fill-rule="nonzero"/><path fill="#11142d" d="M 46.015625 21.476562 C 46.757812 21.476562 47.273438 21.285156 47.550781 20.902344 L 47.613281 20.902344 L 47.644531 22.910156 C 47.355469 23.203125 46.828125 23.394531 46.058594 23.476562 C 45.855469 23.507812 45.597656 23.523438 45.285156 23.523438 C 44.972656 23.523438 44.632812 23.46875 44.273438 23.359375 C 43.914062 23.242188 43.605469 23.050781 43.347656 22.78125 C 42.820312 22.25 42.5625 21.40625 42.5625 20.253906 L 42.5625 16.3125 L 41.257812 16.3125 C 41.246094 16.140625 41.242188 15.964844 41.242188 15.792969 L 41.242188 14.453125 C 41.242188 14.351562 41.246094 14.300781 41.257812 14.300781 L 42.5625 14.300781 L 42.5625 11.828125 L 44.6875 11.828125 L 44.6875 14.300781 L 47.085938 14.300781 L 47.085938 16.3125 L 44.6875 16.3125 L 44.6875 19.851562 C 44.6875 20.765625 44.941406 21.28125 45.449219 21.40625 C 45.605469 21.453125 45.796875 21.476562 46.015625 21.476562 Z M 46.015625 21.476562 " fill-opacity="1" fill-rule="nonzero"/><path fill="#11142d" d="M 55.398438 22.851562 C 54.574219 23.300781 53.828125 23.523438 53.167969 23.523438 C 52.5 23.523438 51.925781 23.457031 51.449219 23.335938 C 50.980469 23.210938 50.574219 23.027344 50.242188 22.78125 C 49.574219 22.289062 49.242188 21.578125 49.242188 20.640625 C 49.242188 19.8125 49.652344 19.117188 50.476562 18.558594 C 51.359375 17.953125 52.570312 17.652344 54.105469 17.652344 L 54.445312 17.664062 C 54.515625 17.675781 54.59375 17.675781 54.679688 17.675781 C 54.765625 17.675781 54.847656 17.6875 54.914062 17.699219 C 54.871094 16.773438 54.46875 16.234375 53.71875 16.078125 C 53.464844 16.023438 53.199219 15.996094 52.917969 15.996094 C 52.640625 15.996094 52.371094 16.015625 52.097656 16.066406 C 51.828125 16.109375 51.566406 16.179688 51.308594 16.261719 C 50.75 16.445312 50.351562 16.652344 50.113281 16.875 L 50.074219 16.867188 L 49.820312 14.933594 C 50.84375 14.402344 51.960938 14.132812 53.179688 14.132812 C 55.0625 14.132812 56.273438 14.816406 56.808594 16.167969 C 56.972656 16.609375 57.054688 17.101562 57.054688 17.640625 L 57.054688 20.792969 C 57.054688 21.46875 57.292969 21.929688 57.769531 22.171875 L 56.195312 23.605469 C 55.867188 23.433594 55.597656 23.183594 55.398438 22.851562 Z M 54.929688 19.265625 C 54.769531 19.234375 54.605469 19.21875 54.4375 19.21875 L 54.09375 19.21875 C 52.808594 19.21875 51.996094 19.507812 51.648438 20.074219 C 51.546875 20.242188 51.5 20.417969 51.5 20.605469 C 51.5 20.789062 51.527344 20.953125 51.59375 21.097656 C 51.660156 21.242188 51.773438 21.355469 51.933594 21.441406 C 52.226562 21.621094 52.675781 21.714844 53.273438 21.714844 C 53.867188 21.714844 54.421875 21.570312 54.941406 21.277344 C 54.933594 21.214844 54.929688 21.148438 54.929688 21.078125 Z M 54.929688 19.265625 " fill-opacity="1" fill-rule="nonzero"/><path fill="#11142d" d="M 62.148438 20.972656 C 61.925781 21.261719 61.820312 21.488281 61.820312 21.652344 C 61.820312 21.816406 61.839844 21.949219 61.886719 22.039062 C 61.941406 22.128906 62.058594 22.210938 62.242188 22.289062 C 62.617188 22.472656 63.242188 22.628906 64.121094 22.769531 C 64.996094 22.90625 65.683594 23.074219 66.175781 23.277344 C 66.667969 23.480469 67.070312 23.726562 67.375 24.019531 C 67.945312 24.582031 68.230469 25.378906 68.230469 26.40625 C 68.230469 27.441406 67.871094 28.234375 67.152344 28.785156 C 66.429688 29.339844 65.359375 29.617188 63.933594 29.617188 C 62.492188 29.617188 61.332031 29.304688 60.457031 28.679688 C 59.578125 28.054688 59.125 27.226562 59.105469 26.183594 C 59.0625 24.980469 59.53125 24.109375 60.511719 23.570312 C 60.246094 23.351562 60.066406 23.097656 59.972656 22.792969 C 59.886719 22.496094 59.84375 22.15625 59.84375 21.769531 C 59.84375 21.128906 60.128906 20.582031 60.691406 20.136719 C 60.039062 19.519531 59.714844 18.742188 59.714844 17.820312 C 59.714844 16.792969 60.082031 15.929688 60.820312 15.226562 C 61.597656 14.5 62.617188 14.132812 63.859375 14.132812 C 64.511719 14.132812 65.125 14.257812 65.707031 14.5 C 66.457031 14.179688 67.007812 13.898438 67.363281 13.664062 C 67.714844 13.421875 67.9375 13.246094 68.03125 13.136719 L 68.089844 13.136719 C 68.144531 13.277344 68.203125 13.472656 68.265625 13.734375 L 68.433594 14.355469 C 68.5625 14.875 68.644531 15.226562 68.675781 15.417969 C 68.425781 15.699219 67.976562 15.894531 67.339844 16.003906 C 67.578125 16.496094 67.703125 17.007812 67.703125 17.546875 C 67.703125 18.082031 67.609375 18.566406 67.421875 19.007812 C 67.238281 19.449219 66.976562 19.828125 66.636719 20.160156 C 65.882812 20.871094 64.917969 21.230469 63.742188 21.230469 C 63.160156 21.230469 62.632812 21.144531 62.148438 20.972656 Z M 61.914062 17.0625 C 61.832031 17.269531 61.792969 17.480469 61.792969 17.699219 C 61.792969 17.910156 61.835938 18.117188 61.925781 18.3125 C 62.019531 18.507812 62.148438 18.683594 62.324219 18.84375 C 62.714844 19.191406 63.21875 19.371094 63.835938 19.371094 C 64.3125 19.371094 64.726562 19.210938 65.074219 18.886719 C 65.4375 18.542969 65.621094 18.128906 65.621094 17.640625 C 65.621094 17.144531 65.460938 16.753906 65.128906 16.453125 C 64.800781 16.148438 64.34375 15.996094 63.765625 15.996094 C 62.8125 15.996094 62.195312 16.351562 61.914062 17.0625 Z M 64.039062 27.78125 C 65.464844 27.78125 66.175781 27.28125 66.175781 26.277344 C 66.175781 25.804688 65.945312 25.421875 65.484375 25.136719 C 64.96875 24.808594 64.074219 24.546875 62.804688 24.359375 L 62.347656 24.277344 C 61.960938 24.480469 61.679688 24.742188 61.5 25.0625 C 61.328125 25.386719 61.242188 25.6875 61.242188 25.972656 C 61.242188 26.261719 61.308594 26.507812 61.441406 26.714844 C 61.574219 26.925781 61.761719 27.105469 62.007812 27.265625 C 62.527344 27.609375 63.207031 27.78125 64.039062 27.78125 Z M 64.039062 27.78125 " fill-opacity="1" fill-rule="nonzero"/><path fill="#11142d" d="M 69.683594 18.925781 C 69.683594 18.25 69.796875 17.625 70.023438 17.039062 C 70.261719 16.460938 70.585938 15.953125 71.011719 15.511719 C 71.90625 14.59375 73.089844 14.132812 74.546875 14.132812 C 75.785156 14.132812 76.773438 14.542969 77.515625 15.359375 C 78.253906 16.144531 78.621094 17.132812 78.621094 18.335938 C 78.621094 18.792969 78.585938 19.105469 78.515625 19.273438 C 77.933594 19.4375 76.757812 19.511719 74.980469 19.511719 L 71.925781 19.511719 C 72.074219 20.132812 72.425781 20.617188 72.972656 20.957031 C 73.527344 21.304688 74.242188 21.476562 75.121094 21.476562 C 76.042969 21.476562 76.835938 21.3125 77.496094 20.984375 C 77.664062 20.898438 77.792969 20.816406 77.882812 20.75 C 77.875 20.992188 77.863281 21.238281 77.847656 21.488281 L 77.742188 22.839844 C 77.300781 23.148438 76.59375 23.359375 75.617188 23.476562 C 75.324219 23.507812 75.046875 23.523438 74.78125 23.523438 C 73.304688 23.523438 72.089844 23.097656 71.125 22.242188 C 70.164062 21.378906 69.683594 20.273438 69.683594 18.925781 Z M 76.320312 17.828125 C 76.078125 16.582031 75.398438 15.957031 74.285156 15.957031 C 73.398438 15.957031 72.730469 16.339844 72.277344 17.101562 C 72.140625 17.328125 72.023438 17.582031 71.949219 17.863281 C 72.089844 17.871094 72.261719 17.875 72.46875 17.875 L 73.113281 17.875 C 73.324219 17.886719 73.527344 17.890625 73.726562 17.890625 L 74.21875 17.890625 C 74.515625 17.890625 74.804688 17.886719 75.085938 17.875 L 75.804688 17.851562 C 75.992188 17.847656 76.160156 17.839844 76.320312 17.828125 Z M 76.320312 17.828125 " fill-opacity="1" fill-rule="nonzero"/><path fill="#4ca9f2" d="M 84.894531 23.441406 C 84.621094 23.410156 83.902344 23.394531 82.746094 23.394531 L 82.476562 23.394531 L 82.476562 13.769531 L 80.75 13.769531 C 80.238281 13.769531 79.9375 13.800781 79.84375 13.851562 C 79.757812 13.90625 79.683594 13.957031 79.632812 13.992188 L 79.609375 13.980469 L 79.609375 11.757812 L 79.632812 11.734375 C 79.820312 11.800781 80.335938 11.828125 81.183594 11.828125 L 86.621094 11.828125 C 87.128906 11.828125 87.433594 11.804688 87.527344 11.746094 C 87.621094 11.691406 87.691406 11.644531 87.738281 11.605469 L 87.773438 11.617188 L 87.773438 13.839844 L 87.738281 13.875 C 87.550781 13.804688 87.035156 13.769531 86.199219 13.769531 L 84.894531 13.769531 Z M 84.894531 23.441406 " fill-opacity="1" fill-rule="nonzero"/><path fill="#11142d" d="M 91.46875 22.417969 C 91.46875 22.921875 91.480469 23.25 91.503906 23.394531 L 89.339844 23.394531 L 89.339844 14.300781 L 91.46875 14.300781 L 91.46875 14.96875 C 91.960938 14.414062 92.476562 14.132812 93.019531 14.132812 C 93.558594 14.132812 93.984375 14.203125 94.300781 14.335938 L 94.144531 16.675781 L 94.113281 16.699219 C 93.90625 16.339844 93.488281 16.160156 92.855469 16.160156 C 92.613281 16.160156 92.359375 16.242188 92.101562 16.40625 C 91.851562 16.570312 91.640625 16.792969 91.46875 17.0625 Z M 91.46875 22.417969 " fill-opacity="1" fill-rule="nonzero"/><path fill="#11142d" d="M 101.351562 22.851562 C 100.53125 23.300781 99.785156 23.523438 99.121094 23.523438 C 98.453125 23.523438 97.882812 23.457031 97.40625 23.335938 C 96.933594 23.210938 96.53125 23.027344 96.195312 22.78125 C 95.527344 22.289062 95.195312 21.578125 95.195312 20.640625 C 95.195312 19.8125 95.609375 19.117188 96.429688 18.558594 C 97.3125 17.953125 98.523438 17.652344 100.058594 17.652344 L 100.398438 17.664062 C 100.472656 17.675781 100.546875 17.675781 100.636719 17.675781 C 100.722656 17.675781 100.800781 17.6875 100.871094 17.699219 C 100.824219 16.773438 100.425781 16.234375 99.671875 16.078125 C 99.417969 16.023438 99.15625 15.996094 98.875 15.996094 C 98.597656 15.996094 98.324219 16.015625 98.050781 16.066406 C 97.785156 16.109375 97.523438 16.179688 97.261719 16.261719 C 96.707031 16.445312 96.308594 16.652344 96.066406 16.875 L 96.03125 16.867188 L 95.769531 14.933594 C 96.796875 14.402344 97.914062 14.132812 99.128906 14.132812 C 101.019531 14.132812 102.226562 14.816406 102.761719 16.167969 C 102.925781 16.609375 103.007812 17.101562 103.007812 17.640625 L 103.007812 20.792969 C 103.007812 21.46875 103.246094 21.929688 103.726562 22.171875 L 102.152344 23.605469 C 101.824219 23.433594 101.554688 23.183594 101.351562 22.851562 Z M 100.882812 19.265625 C 100.726562 19.234375 100.558594 19.21875 100.386719 19.21875 L 100.050781 19.21875 C 98.761719 19.21875 97.945312 19.507812 97.605469 20.074219 C 97.503906 20.242188 97.449219 20.417969 97.449219 20.605469 C 97.449219 20.789062 97.480469 20.953125 97.546875 21.097656 C 97.617188 21.242188 97.726562 21.355469 97.886719 21.441406 C 98.183594 21.621094 98.628906 21.714844 99.226562 21.714844 C 99.816406 21.714844 100.375 21.570312 100.894531 21.277344 C 100.882812 21.214844 100.882812 21.148438 100.882812 21.078125 Z M 100.882812 19.265625 " fill-opacity="1" fill-rule="nonzero"/><path fill="#11142d" d="M 112.808594 22.546875 C 112.160156 23.199219 111.144531 23.523438 109.757812 23.523438 C 108.417969 23.523438 107.320312 23.117188 106.46875 22.300781 C 105.605469 21.46875 105.175781 20.367188 105.175781 18.996094 C 105.175781 17.601562 105.601562 16.449219 106.457031 15.546875 C 107.355469 14.605469 108.5625 14.132812 110.074219 14.132812 C 111.148438 14.132812 112.042969 14.371094 112.765625 14.839844 L 112.410156 17.0625 L 112.355469 17.050781 C 112.078125 16.71875 111.789062 16.496094 111.484375 16.394531 C 110.980469 16.222656 110.480469 16.136719 109.980469 16.136719 C 109.488281 16.136719 109.09375 16.199219 108.804688 16.324219 C 108.523438 16.449219 108.277344 16.625 108.078125 16.851562 C 107.675781 17.316406 107.476562 17.929688 107.476562 18.699219 C 107.476562 20.058594 107.949219 20.945312 108.890625 21.359375 C 109.207031 21.5 109.546875 21.570312 109.910156 21.570312 C 110.269531 21.570312 110.582031 21.539062 110.851562 21.476562 C 111.121094 21.40625 111.371094 21.316406 111.589844 21.207031 C 112.058594 20.980469 112.375 20.710938 112.542969 20.40625 L 112.609375 20.429688 Z M 112.808594 22.546875 " fill-opacity="1" fill-rule="nonzero"/><path fill="#11142d" d="M 116.875 22.242188 C 116.875 22.746094 116.898438 23.128906 116.9375 23.394531 L 114.753906 23.394531 L 114.753906 10.957031 L 116.875 10.957031 L 116.875 18.570312 L 120.847656 14.300781 L 123.421875 14.300781 L 120.003906 17.910156 L 121.953125 20.582031 C 122.375 21.257812 122.695312 21.753906 122.917969 22.0625 L 123.480469 22.878906 C 123.660156 23.097656 123.804688 23.269531 123.914062 23.394531 L 122.550781 23.394531 C 122.042969 23.394531 121.601562 23.433594 121.238281 23.523438 L 118.523438 19.558594 L 116.875 21.3125 Z M 116.875 22.242188 " fill-opacity="1" fill-rule="nonzero"/></svg>